<svg xmlns="http://www.w3.org/2000/svg" viewBox="117.3986785888672 66.5942699771901 340.20263671875 424.80072857322494"><rect height="100%" width="100%" x="117.3986785888672" y="66.5942699771901" fill="rgba(33, 57, 54, 1)"/> <svg xmlns="http://www.w3.org/2000/svg" id="Layer_1" dataName="Layer 1" viewBox="52.42771911621094 68.58998107910156 572.044677734375 535.0144653320312" height="177.7007193839987" width="190" y="136.5942699771901" x="191.998779296875" preserveAspectRatio="xMinYMin" style="overflow: visible;"><circle class="cls-1" cx="322.03" cy="320.58" r="251.99" style="fill: #fefefe;"></circle><path class="cls-1" d="M451.34,304S448,226.1,403.06,180.36,144.71,94.81,103.2,195.6,52.38,561.53,327.67,575.09c0,0-131.29-94-146.54-199.06S451.34,304,451.34,304Z" style="fill: #fefefe;"></path><path class="cls-2" d="M396,332s15.81-33.32,6.78-50.82-116.33-127.06-208.66-83S102.64,384.5,142.45,451.42s73.22,102.3,196.89,127.71S481.27,603.6,481.27,603.6L300,474.29s-65.22-40.66-55.91-88.94S348.28,341.3,366.92,339.6,396,332,396,332Z" style="fill: #ffba00;"></path><path class="cls-3" d="M322.59,575.93S90.49,534.71,90.49,328,299.43,137.16,350.26,167.65s71.15,73.41,38.4,124.24c0,0-25.41,22.87-31.06,48.84,0,0,85.55,0,121.13,2.55S609.18,334,621,300.08s-35.57-39-35.57-39S505,273.82,446.54,206.9l-33.88-48.28s-57.88-74.83-154.45-68.9S23.58,194.76,57.74,375.46C93.34,563.76,322.59,575.93,322.59,575.93Z" style="fill: #213936;"></path><ellipse class="cls-3" cx="327.67" cy="209.25" rx="20.52" ry="21.08" style="fill: #213936;"></ellipse><path class="cls-2" d="M588.47,260.92s-39.53.76-64-7.53-57.22-24.84-57.22-24.84-22.59-1.51-29,12.8-10.17,25.6-17.7,32.75-26.73,29.74-26.73,29.74l2.26,11.67s158.4,23.34,196.43-7.53S611.06,267.32,588.47,260.92Z" style="fill: #ffba00;"></path><path class="cls-4" d="M136.52,296.69s11,56.75,75.39,55.06,106.72-7.63,106.72-7.63-111,5.93-60.14,89.79C258.49,433.91,148.66,433.63,136.52,296.69Z" style="fill: #dc8400;"></path><path class="cls-4" d="M593.51,319.54c12.8-4.8,21.9-13.86,29.27-24.61a17.52,17.52,0,0,0,0-7.56C616.8,262,588.85,262,588.85,262c27.1,16.09,26.82,27.1,5.64,41.79-39.89,27.65-157.83,11-175.62,7.62s-13.13-21.46-13.13-21.46c-17.71,7.87-19.08,26.39-18.8,34.36C455.91,332.17,526.6,341.85,593.51,319.54Z" style="fill: #dc8400;"></path><path class="cls-3" d="M593.51,319.54c-66.91,22.31-137.6,12.63-206.57,4.73a33.72,33.72,0,0,0,.31,3.76l-6.78,9.32S502.45,347.51,538,345c32.09-2.29,80.9-23.29,84.76-50C615.41,305.68,606.31,314.74,593.51,319.54Z" style="fill: #213936;"></path><path class="cls-4" d="M613.9,271.84s26.62,31.34-36.63,46.87-189.74-4.61-189.74-3.48-2.26,16.19-2.26,16.19l92.42,2.63s90.73,3.2,119.06-14.21C632.56,297.83,628.3,283.42,613.9,271.84Z" style="fill: #dc8400;"></path><path class="cls-4" d="M520.63,271.91l-32.21-7.61s-17.32-11.08-23.07-.64S476.12,280.33,520.63,271.91Z" style="fill: #dc8400;"></path><path class="cls-5" d="M521.58,270.92l-30.52-12.8s-15.26-13.79-22.64-4.43S476.29,271.9,521.58,270.92Z" style="fill: #0d2525;"></path><path class="cls-1" d="M124.38,403.13s24.56,130.45,166,128.76c0,0-78.78,37.27-154.16-64.38Z" style="fill: #fefefe;"></path></svg> <svg y="410.55499839782715" viewBox="0.5299999713897705 4.630000114440918 200.20263671875 10.84000015258789" x="187.3986785888672" height="10.84000015258789" width="200.20263671875" style="overflow: visible;"><g fill="#ffba00" fill-opacity="1" style=""><path d="M2.28 10.08L2.28 10.08Q2.28 9.07 2.72 8.28Q3.15 7.49 3.91 7.04Q4.66 6.59 5.64 6.59L5.64 6.59Q6.66 6.59 7.43 7.07Q8.19 7.55 8.62 8.36Q9.06 9.17 9.06 10.18L9.06 10.18Q9.06 11.19 8.62 11.97Q8.19 12.75 7.44 13.20Q6.69 13.64 5.71 13.64L5.71 13.64Q4.73 13.64 3.96 13.18Q3.19 12.73 2.74 11.92Q2.28 11.12 2.28 10.08ZM0.53 10.08L0.53 10.08Q0.53 11.17 0.91 12.11Q1.29 13.05 1.98 13.73Q2.67 14.42 3.60 14.80Q4.54 15.19 5.64 15.19L5.64 15.19Q6.75 15.19 7.67 14.80Q8.60 14.42 9.28 13.73Q9.97 13.05 10.34 12.11Q10.71 11.17 10.71 10.08L10.71 10.08Q10.71 8.97 10.33 8.05Q9.95 7.13 9.27 6.45Q8.58 5.77 7.66 5.38Q6.73 5.00 5.64 5.00L5.64 5.00Q4.55 5.00 3.62 5.38Q2.69 5.77 2.00 6.45Q1.30 7.13 0.92 8.05Q0.53 8.97 0.53 10.08ZM7.08 10.78L5.18 10.78L9.56 15.05L11.49 15.05L7.08 10.78ZM20.59 5.18L18.94 5.18L18.94 11.76Q18.94 12.57 19.20 13.21Q19.46 13.85 19.94 14.29Q20.41 14.74 21.07 14.98Q21.73 15.22 22.51 15.22L22.51 15.22Q23.30 15.22 23.95 14.98Q24.61 14.74 25.10 14.29Q25.58 13.85 25.84 13.21Q26.10 12.57 26.10 11.76L26.10 11.76L26.10 5.18L24.43 5.18L24.43 11.69Q24.43 12.59 23.95 13.15Q23.46 13.71 22.51 13.71L22.51 13.71Q21.57 13.71 21.08 13.15Q20.59 12.59 20.59 11.69L20.59 11.69L20.59 5.18ZM36.13 11.06L35.81 12.46L40.99 12.46L40.68 11.06L36.13 11.06ZM36.83 11.55L38.37 7.95L39.94 11.59L39.97 12.00L41.30 14.98L43.18 14.98L38.37 4.63L33.59 14.98L35.45 14.98L36.81 11.91L36.83 11.55ZM52.39 5.18L50.74 5.18L50.74 14.98L56.28 14.98L56.28 13.50L52.39 13.50L52.39 5.18ZM65.59 5.18L63.91 5.18L63.91 14.98L65.59 14.98L65.59 5.18ZM73.22 5.18L73.22 6.71L75.81 6.71L75.81 14.98L77.46 14.98L77.46 6.71L80.05 6.71L80.05 5.18L73.22 5.18ZM95.40 5.18L93.51 5.18L91.22 9.37L88.96 5.18L87.07 5.18L90.40 10.86L90.40 14.98L92.08 14.98L92.08 10.85L95.40 5.18ZM114.84 10.08L114.84 10.08Q114.84 9.03 115.31 8.25Q115.78 7.48 116.54 7.05Q117.29 6.62 118.19 6.62L118.19 6.62Q118.89 6.62 119.45 6.80Q120.02 6.99 120.47 7.30Q120.92 7.62 121.25 8.01L121.25 8.01L121.25 6.05Q120.65 5.53 119.93 5.26Q119.21 5.00 118.13 5.00L118.13 5.00Q117.05 5.00 116.12 5.37Q115.19 5.74 114.51 6.42Q113.82 7.10 113.44 8.03Q113.05 8.96 113.05 10.08L113.05 10.08Q113.05 11.19 113.44 12.12Q113.82 13.05 114.51 13.73Q115.19 14.42 116.12 14.78Q117.05 15.15 118.13 15.15L118.13 15.15Q119.21 15.15 119.93 14.88Q120.65 14.62 121.25 14.11L121.25 14.11L121.25 12.14Q120.92 12.54 120.47 12.86Q120.02 13.17 119.45 13.36Q118.89 13.54 118.19 13.54L118.19 13.54Q117.29 13.54 116.54 13.10Q115.78 12.67 115.31 11.89Q114.84 11.12 114.84 10.08ZM130.91 10.08L130.91 10.08Q130.91 9.07 131.35 8.28Q131.78 7.49 132.53 7.04Q133.28 6.59 134.25 6.59L134.25 6.59Q135.24 6.59 135.99 7.04Q136.74 7.49 137.16 8.28Q137.58 9.07 137.58 10.08L137.58 10.08Q137.58 11.09 137.15 11.87Q136.72 12.66 135.97 13.11Q135.23 13.57 134.25 13.57L134.25 13.57Q133.28 13.57 132.53 13.11Q131.78 12.66 131.35 11.87Q130.91 11.09 130.91 10.08ZM129.16 10.08L129.16 10.08Q129.16 11.17 129.54 12.11Q129.92 13.05 130.61 13.73Q131.29 14.42 132.22 14.80Q133.15 15.19 134.25 15.19L134.25 15.19Q135.37 15.19 136.29 14.80Q137.21 14.42 137.90 13.73Q138.59 13.05 138.96 12.11Q139.34 11.17 139.34 10.08L139.34 10.08Q139.34 8.97 138.96 8.05Q138.59 7.13 137.89 6.45Q137.20 5.77 136.28 5.38Q135.35 5.00 134.25 5.00L134.25 5.00Q133.17 5.00 132.24 5.38Q131.31 5.77 130.61 6.45Q129.92 7.13 129.54 8.05Q129.16 8.97 129.16 10.08ZM149.10 5.18L147.41 5.18L147.41 14.98L149.10 14.98L149.10 5.18ZM148.43 14.98L150.57 14.98Q152.07 14.98 153.20 14.37Q154.34 13.76 154.97 12.66Q155.61 11.56 155.61 10.08L155.61 10.08Q155.61 8.60 154.97 7.50Q154.34 6.40 153.20 5.79Q152.07 5.18 150.57 5.18L150.57 5.18L148.43 5.18L148.43 6.73L150.53 6.73Q151.26 6.73 151.87 6.94Q152.49 7.15 152.94 7.57Q153.40 7.99 153.66 8.62Q153.92 9.25 153.92 10.08L153.92 10.08Q153.92 10.91 153.66 11.54Q153.40 12.17 152.94 12.58Q152.49 12.99 151.87 13.21Q151.26 13.43 150.53 13.43L150.53 13.43L148.43 13.43L148.43 14.98ZM165.34 5.18L163.66 5.18L163.66 14.98L165.34 14.98L165.34 5.18ZM182.73 5.18L181.10 5.18L181.10 11.76L173.95 4.69L173.95 14.98L175.57 14.98L175.57 8.40L182.73 15.47L182.73 5.18ZM196.01 9.86L196.01 11.26L199.02 11.26Q198.90 11.75 198.65 12.18Q198.39 12.61 198.02 12.95Q197.64 13.29 197.12 13.47Q196.60 13.65 195.94 13.65L195.94 13.65Q194.98 13.65 194.21 13.20Q193.44 12.75 192.99 11.95Q192.54 11.14 192.54 10.08L192.54 10.08Q192.54 9.00 193.00 8.21Q193.45 7.42 194.23 6.98Q195.01 6.54 195.94 6.54L195.94 6.54Q196.97 6.54 197.69 6.96Q198.41 7.38 198.81 8.08L198.81 8.08L200.16 7.18Q199.72 6.50 199.11 6.01Q198.49 5.53 197.70 5.26Q196.91 5.00 195.94 5.00L195.94 5.00Q194.84 5.00 193.90 5.37Q192.96 5.74 192.26 6.42Q191.56 7.10 191.18 8.03Q190.79 8.96 190.79 10.08L190.79 10.08Q190.79 11.20 191.17 12.14Q191.55 13.08 192.24 13.76Q192.93 14.45 193.87 14.82Q194.81 15.19 195.92 15.19L195.92 15.19Q197.09 15.19 198.00 14.76Q198.91 14.34 199.53 13.59Q200.14 12.85 200.45 11.89Q200.76 10.93 200.73 9.86L200.73 9.86L196.01 9.86Z" transform="translate(0, 0)"></path></g></svg> <svg y="342.44500160217285" viewBox="3.0299999713897705 14.229999542236328 175.0800018310547 50.07999801635742" x="199.96000335693358" height="50.07999801635742" width="175.0800018310547" style="overflow: visible;"><g fill="#fefefe" fill-opacity="1" style=""><path d="M18.77 62.04L16.28 64.31L10.50 58.01L13.89 56.37L18.77 62.04ZM11.57 58.23L11.57 58.23Q8.35 58.23 6.48 56.81Q4.61 55.40 3.82 52.54Q3.03 49.68 3.03 45.39L3.03 45.39L3.03 26.44Q3.03 22.73 3.76 20.00Q4.49 17.26 6.37 15.75Q8.25 14.23 11.69 14.23L11.69 14.23Q14.28 14.23 15.92 15.10Q17.55 15.97 18.44 17.57Q19.34 19.17 19.68 21.41Q20.02 23.66 20.02 26.44L20.02 26.44L20.02 45.39Q20.02 49.68 19.25 52.54Q18.48 55.40 16.64 56.81Q14.79 58.23 11.57 58.23ZM11.57 53.88L11.57 53.88Q12.96 53.88 13.70 53.09Q14.43 52.29 14.70 50.44Q14.97 48.58 14.97 45.43L14.97 45.43L14.97 26.15Q14.97 22.29 14.36 20.43Q13.75 18.58 11.69 18.58L11.69 18.58Q9.57 18.58 8.83 20.42Q8.08 22.27 8.08 26.12L8.08 26.12L8.08 45.43Q8.08 48.61 8.35 50.45Q8.62 52.29 9.38 53.09Q10.13 53.88 11.57 53.88ZM43.74 58.25L43.74 58.25Q40.57 58.25 38.70 56.99Q36.83 55.74 36.03 53.17Q35.22 50.61 35.22 46.70L35.22 46.70L35.22 14.77L40.27 14.77L40.27 46.58Q40.27 48.90 40.45 50.56Q40.62 52.22 41.35 53.10Q42.08 53.98 43.74 53.98L43.74 53.98Q45.43 53.98 46.13 53.10Q46.84 52.22 47.00 50.57Q47.16 48.93 47.16 46.61L47.16 46.61L47.16 14.77L52.19 14.77L52.19 46.70Q52.19 50.61 51.41 53.17Q50.63 55.74 48.78 56.99Q46.94 58.25 43.74 58.25ZM70.37 57.74L65.56 57.74L72.08 14.77L78.16 14.77L85.26 57.74L80.50 57.74L79.28 49.54L71.49 49.54L70.37 57.74ZM75.18 22.73L72.05 45.43L78.64 45.43L75.25 22.73L75.18 22.73ZM106.96 58.25L106.96 58.25Q103.83 58.25 101.98 56.73Q100.12 55.20 99.31 52.25Q98.51 49.29 98.51 45.07L98.51 45.07L98.51 27.17Q98.51 24.34 98.88 21.98Q99.24 19.63 100.18 17.91Q101.12 16.19 102.81 15.25Q104.49 14.31 107.13 14.31L107.13 14.31Q109.64 14.31 111.23 15.20Q112.82 16.09 113.69 17.74Q114.57 19.38 114.90 21.64Q115.23 23.90 115.23 26.64L115.23 26.64L115.23 31.40L110.28 31.40L110.28 26.61Q110.28 22.61 109.70 20.62Q109.13 18.63 107.13 18.63L107.13 18.63Q105.00 18.63 104.28 20.67Q103.56 22.71 103.56 26.59L103.56 26.59L103.56 45.19Q103.56 48.32 103.83 50.26Q104.10 52.20 104.84 53.08Q105.59 53.96 106.98 53.96L106.98 53.96Q109.01 53.96 109.64 51.90Q110.28 49.85 110.28 45.17L110.28 45.17L110.28 40.41L115.28 40.41L115.28 45.12Q115.28 49.41 114.54 52.34Q113.79 55.27 111.99 56.76Q110.18 58.25 106.96 58.25ZM135.51 57.74L130.41 57.74L130.41 14.77L135.46 14.77L135.46 35.25L143.10 14.77L148.18 14.77L140.17 35.99L148.74 57.74L143.47 57.74L135.51 37.18L135.51 57.74ZM169.66 58.23L169.66 58.23Q166.44 58.23 164.57 56.81Q162.70 55.40 161.91 52.54Q161.11 49.68 161.11 45.39L161.11 45.39L161.11 26.44Q161.11 22.73 161.85 20.00Q162.58 17.26 164.46 15.75Q166.34 14.23 169.78 14.23L169.78 14.23Q172.37 14.23 174.00 15.10Q175.64 15.97 176.53 17.57Q177.42 19.17 177.76 21.41Q178.11 23.66 178.11 26.44L178.11 26.44L178.11 45.39Q178.11 49.68 177.34 52.54Q176.57 55.40 174.72 56.81Q172.88 58.23 169.66 58.23ZM169.66 53.88L169.66 53.88Q171.05 53.88 171.78 53.09Q172.51 52.29 172.78 50.44Q173.05 48.58 173.05 45.43L173.05 45.43L173.05 26.15Q173.05 22.29 172.44 20.43Q171.83 18.58 169.78 18.58L169.78 18.58Q167.66 18.58 166.91 20.42Q166.17 22.27 166.17 26.12L166.17 26.12L166.17 45.43Q166.17 48.61 166.44 50.45Q166.70 52.29 167.46 53.09Q168.22 53.88 169.66 53.88Z" transform="translate(0, 0)"></path></g></svg></svg>