{
	"asset":{
		"generator":"Khronos glTF Blender I/O v3.6.27",
		"version":"2.0"
	},
	"scene":0,
	"scenes":[
		{
			"name":"Scene",
			"nodes":[
				0,
				1,
				2
			]
		}
	],
	"nodes":[
		{
			"mesh":0,
			"name":"DuckRubber"
		},
		{
			"mesh":1,
			"name":"HatDerby",
			"translation":[
				0,
				1.955570101737976,
				0.1599999964237213
			]
		},
		{
			"mesh":2,
			"name":"HatTop",
			"translation":[
				0,
				1.955570101737976,
				0.1599999964237213
			]
		}
	],
	"materials":[
		{
			"doubleSided":true,
			"name":"DuckMaterial.001",
			"pbrMetallicRoughness":{
				"baseColorTexture":{
					"index":0
				},
				"metallicFactor":0,
				"metallicRoughnessTexture":{
					"index":1
				}
			}
		}
	],
	"meshes":[
		{
			"name":"DuckRubber",
			"primitives":[
				{
					"attributes":{
						"POSITION":0,
						"NORMAL":1,
						"TEXCOORD_0":2
					},
					"indices":3,
					"material":0
				}
			]
		},
		{
			"name":"HatDerby",
			"primitives":[
				{
					"attributes":{
						"POSITION":4,
						"NORMAL":5,
						"TEXCOORD_0":6
					},
					"indices":7,
					"material":0
				}
			]
		},
		{
			"name":"HatTop",
			"primitives":[
				{
					"attributes":{
						"POSITION":8,
						"NORMAL":9,
						"TEXCOORD_0":10
					},
					"indices":11,
					"material":0
				}
			]
		}
	],
	"textures":[
		{
			"sampler":0,
			"source":0
		},
		{
			"sampler":0,
			"source":1
		}
	],
	"images":[
		{
			"bufferView":4,
			"mimeType":"image/png",
			"name":"DuckRubberTexture_x1024"
		},
		{
			"bufferView":5,
			"mimeType":"image/png",
			"name":"DuckRubberRoughness_x1024"
		}
	],
	"accessors":[
		{
			"bufferView":0,
			"componentType":5126,
			"count":1677,
			"max":[
				1.1838947534561157,
				2.7555699348449707,
				1.257438063621521
			],
			"min":[
				-1.1838947534561157,
				-1.1920928955078125e-07,
				-1.742560625076294
			],
			"type":"VEC3"
		},
		{
			"bufferView":1,
			"componentType":5126,
			"count":1677,
			"type":"VEC3"
		},
		{
			"bufferView":2,
			"componentType":5126,
			"count":1677,
			"type":"VEC2"
		},
		{
			"bufferView":3,
			"componentType":5123,
			"count":9060,
			"type":"SCALAR"
		},
		{
			"bufferView":6,
			"componentType":5126,
			"count":1255,
			"max":[
				0.800000011920929,
				1.4857698678970337,
				0.9000000357627869
			],
			"min":[
				-0.800000011920929,
				0.4982008934020996,
				-0.9000000357627869
			],
			"type":"VEC3"
		},
		{
			"bufferView":7,
			"componentType":5126,
			"count":1255,
			"type":"VEC3"
		},
		{
			"bufferView":8,
			"componentType":5126,
			"count":1255,
			"type":"VEC2"
		},
		{
			"bufferView":9,
			"componentType":5123,
			"count":6528,
			"type":"SCALAR"
		},
		{
			"bufferView":10,
			"componentType":5126,
			"count":1321,
			"max":[
				0.800000011920929,
				1.4857698678970337,
				0.9000000357627869
			],
			"min":[
				-0.800000011920929,
				0.4982008934020996,
				-0.9000000357627869
			],
			"type":"VEC3"
		},
		{
			"bufferView":11,
			"componentType":5126,
			"count":1321,
			"type":"VEC3"
		},
		{
			"bufferView":12,
			"componentType":5126,
			"count":1321,
			"type":"VEC2"
		},
		{
			"bufferView":13,
			"componentType":5123,
			"count":6912,
			"type":"SCALAR"
		}
	],
	"bufferViews":[
		{
			"buffer":0,
			"byteLength":20124,
			"byteOffset":0,
			"target":34962
		},
		{
			"buffer":0,
			"byteLength":20124,
			"byteOffset":20124,
			"target":34962
		},
		{
			"buffer":0,
			"byteLength":13416,
			"byteOffset":40248,
			"target":34962
		},
		{
			"buffer":0,
			"byteLength":18120,
			"byteOffset":53664,
			"target":34963
		},
		{
			"buffer":0,
			"byteLength":59902,
			"byteOffset":71784
		},
		{
			"buffer":0,
			"byteLength":30195,
			"byteOffset":131688
		},
		{
			"buffer":0,
			"byteLength":15060,
			"byteOffset":161884,
			"target":34962
		},
		{
			"buffer":0,
			"byteLength":15060,
			"byteOffset":176944,
			"target":34962
		},
		{
			"buffer":0,
			"byteLength":10040,
			"byteOffset":192004,
			"target":34962
		},
		{
			"buffer":0,
			"byteLength":13056,
			"byteOffset":202044,
			"target":34963
		},
		{
			"buffer":0,
			"byteLength":15852,
			"byteOffset":215100,
			"target":34962
		},
		{
			"buffer":0,
			"byteLength":15852,
			"byteOffset":230952,
			"target":34962
		},
		{
			"buffer":0,
			"byteLength":10568,
			"byteOffset":246804,
			"target":34962
		},
		{
			"buffer":0,
			"byteLength":13824,
			"byteOffset":257372,
			"target":34963
		}
	],
	"samplers":[
		{
			"magFilter":9729,
			"minFilter":9987
		}
	],
	"buffers":[
		{
			"byteLength":271196,
			"uri":"data:application/octet-stream;base64,"
		}
	]
}
